<svg version="1.1" xmlns="http://www.w3.org/2000/svg" xmlns:xlink="http://www.w3.org/1999/xlink">

  <defs>
    <style>
      g {
        display: none;
      }
      g:target,
      g:target g {
        display: inline;
      }
      .black {
      color: #000000;
      }
      .white {
        color: #ffffff;
      }
      .gray {
        color: #777777;
      }
      .green{
        color: #017767;
      }
    </style>

    <symbol id="fb-icon" viewBox="0.5 30.5 26.25 26.25">
      <title>fb-icon</title>
      <path
        fill="currentColor"
        d="M26.75 31.947v23.35c0 .803-.65 1.447-1.447 1.447h-6.691v-10.16h3.41l.51-3.961h-3.926v-2.531c0-1.148.316-1.928 1.963-1.928h2.098v-3.545a28.176 28.176 0 0 0-3.059-.158c-3.023 0-5.098 1.846-5.098 5.238v2.924h-3.422v3.961h3.422V56.75H1.947A1.45 1.45 0 0 1 .5 55.303V31.947c0-.797.65-1.447 1.447-1.447h23.35c.803 0 1.453.65 1.453 1.447z"/>
    </symbol>

    <symbol id="arrow-down" viewBox="0 0 77.992 75.25">
      <title>Arrow-down</title>
      <path
        fill="currentColor"
        d="M0 0s64.783 9.25 77.992 75.25H0V0z"/><path fill="none" stroke="#FFF" stroke-width="2" stroke-miterlimit="10" d="M13.883 38.718L28.914 53.75 44 38.664"/>
    </symbol>




  </defs>
  <g id="arrow-black">
    <use class="black" xlink:href="#arrow-right"/>
  </g>
  <!-- <g id="plus-black">
    <use class="black" xlink:href="#plus"/>
  </g> -->
  <!-- <g id="sprite-blue">
    <use class="blue" xlink:href="#sprite"/>
  </g>
  <g id="pdf-blue">
    <use class="blue" xlink:href="#pdf"/>
  </g> -->

</svg>
