<svg version="1.1" xmlns="http://www.w3.org/2000/svg" xmlns:xlink="http://www.w3.org/1999/xlink">

  <defs>
    <style>
      g {
        display: none;
      }
      g:target,
      g:target g {
        display: inline;
      }
      .black {
      color: #000000;
      }
      .white {
        color: #ffffff;
      }
      .gray {
        color: #777777;
      }
      .green{
        color: #017767;
      }
    </style>

    <symbol id="search" viewBox="0 0 36 36">
      <title>Search</title>
      <path
        fill="currentColor"
        d="M35.021 30.76l-6.815-6.816a1.639 1.639 0 0 0-1.162-.479H25.93a14.14 14.14 0 0 0 3.009-8.749C28.938 6.863 22.574.5 14.72.5 6.866.5.503 6.863.503 14.717c0 7.853 6.363 14.217 14.217 14.217 3.302 0 6.337-1.121 8.75-3.008v1.117c0 .437.171.854.479 1.162l6.815 6.814a1.636 1.636 0 0 0 2.318 0l1.933-1.934a1.65 1.65 0 0 0 .006-2.325zM14.72 23.466a8.743 8.743 0 0 1-8.749-8.749 8.742 8.742 0 0 1 8.749-8.749c4.833 0 8.75 3.91 8.75 8.749a8.744 8.744 0 0 1-8.75 8.749z"/>
    </symbol>
    <symbol id="arrow-right" viewBox="0 0 105 105">
      <title>Arrow-right</title>
      <path
        fill="currentColor"
        d="M50.818 3.285l-1.579 1.578a2.677 2.677 0 0 0 0 3.787l39.843 39.843H5.179A2.68 2.68 0 0 0 2.5 51.172v2.232a2.68 2.68 0 0 0 2.679 2.679h83.903L49.239 95.925a2.679 2.679 0 0 0 0 3.788l1.579 1.578a2.679 2.679 0 0 0 3.788 0l47.109-47.109a2.677 2.677 0 0 0 0-3.788L54.605 3.285a2.676 2.676 0 0 0-3.787 0z"/>
    </symbol>
    <symbol id="minus" viewBox="0 0 55 55">
      <title>Minus</title>
      <path
        fill="currentColor"
        d="M15.807 29.314c-.666 0-1.21-.545-1.21-1.209v-1.211c0-.664.544-1.209 1.21-1.209h23.387c.666 0 1.21.545 1.21 1.209v1.211c0 .664-.544 1.209-1.21 1.209H15.807zM52.5 27.5c0 13.811-11.189 25-25 25s-25-11.189-25-25 11.189-25 25-25 25 11.189 25 25zm-3.226 0c0-12.087-9.809-21.774-21.774-21.774-12.087 0-21.774 9.809-21.774 21.774 0 12.087 9.809 21.774 21.774 21.774 12.087 0 21.774-9.808 21.774-21.774z"/>
    </symbol>
    <symbol id="plus" viewBox="0 0 55 55">
      <title>Plus</title>
      <path
        fill="currentColor"
        d="M40.403 26.895v1.209c0 .666-.545 1.21-1.21 1.21h-9.879v9.879c0 .665-.544 1.21-1.21 1.21h-1.209a1.213 1.213 0 0 1-1.209-1.21v-9.879h-9.879c-.666 0-1.21-.544-1.21-1.21v-1.209c0-.665.544-1.209 1.21-1.209h9.879v-9.879c0-.666.544-1.21 1.209-1.21h1.209c.666 0 1.21.544 1.21 1.21v9.879h9.879c.665 0 1.21.544 1.21 1.209zM52.5 27.5c0 13.811-11.189 25-25 25s-25-11.189-25-25 11.189-25 25-25 25 11.189 25 25zm-3.226 0c0-12.087-9.809-21.774-21.774-21.774-12.087 0-21.774 9.809-21.774 21.774 0 12.087 9.809 21.774 21.774 21.774 12.087 0 21.774-9.808 21.774-21.774z"/>
    </symbol>
    <symbol id="pdf" viewBox="0 0 80 105">
      <title>Pdf</title>
      <path
        fill="currentColor"
        d="M74.732 21.637L58.35 5.253A9.379 9.379 0 0 0 51.729 2.5H11.873C6.699 2.519 2.5 6.718 2.5 11.892v81.234c0 5.175 4.199 9.374 9.373 9.374h56.238c5.176 0 9.373-4.199 9.373-9.374v-64.85c0-2.48-.994-4.882-2.752-6.639zm-4.414 4.432c.41.41.684.898.82 1.445H52.49V8.866c.547.137 1.035.41 1.445.82l16.383 16.383zm-2.207 70.182H11.873a3.134 3.134 0 0 1-3.124-3.125V11.892a3.133 3.133 0 0 1 3.124-3.124H46.24v20.309a4.678 4.678 0 0 0 4.688 4.687h20.309v59.363a3.135 3.135 0 0 1-3.126 3.124zM63.816 62.82c-2.637-2.598-10.74-1.798-14.393-1.309-4.139-2.5-6.873-5.937-8.807-11.053.84-3.515 2.344-9.217 1.25-12.673-.859-5.487-7.752-4.823-8.709-1.328-.977 3.573-.059 8.67 1.64 15.192-2.324 5.546-5.8 13.063-8.221 17.301-4.062 2.089-10.564 5.722-11.482 10.232-.684 3.28 4.472 7.693 10.369 1.25 1.777-1.934 3.769-4.843 6.112-8.885 5.214-1.719 10.955-3.866 16.012-4.687 4.277 2.343 9.297 3.885 12.615 3.885 5.411.023 5.646-5.894 3.614-7.925zM19.06 80.199c1.152-3.105 5.584-6.718 6.932-7.968-4.316 6.894-6.932 8.105-6.932 7.968zM37.649 36.79c1.698 0 1.522 7.323.41 9.295-1.015-3.183-.976-9.295-.41-9.295zm-5.545 31.106c2.207-3.866 4.101-8.436 5.624-12.438 1.894 3.456 4.315 6.19 6.854 8.104-4.746.917-8.866 2.949-12.478 4.334zm29.955-1.151s-1.133 1.366-8.494-1.777c8.005-.586 9.314 1.25 8.494 1.777z"/>
    </symbol>




  </defs>
  <g id="arrow-black">
    <use class="black" xlink:href="#arrow-right"/>
  </g>
  <g id="plus-black">
    <use class="black" xlink:href="#plus"/>
  </g>
  <!-- <g id="sprite-blue">
    <use class="blue" xlink:href="#sprite"/>
  </g>
  <g id="pdf-blue">
    <use class="blue" xlink:href="#pdf"/>
  </g> -->

</svg>
